<?xml version="1.0" encoding="UTF-8"?>
<svg version="1.1" xmlns="http://www.w3.org/2000/svg" width="1024" height="1024">
<path d="M0 0 C337.92 0 675.84 0 1024 0 C1024 337.92 1024 675.84 1024 1024 C686.08 1024 348.16 1024 0 1024 C0 686.08 0 348.16 0 0 Z " fill="#FAFAFA" transform="translate(0,0)"/>
<path d="M0 0 C0.82770905 0.00060425 1.65541809 0.0012085 2.50820923 0.00183105 C59.29116376 0.11355086 114.98336263 11.74528697 166.75 35.1875 C168.09433105 35.78788086 168.09433105 35.78788086 169.46582031 36.40039062 C191.75139637 46.41195115 213.00430788 58.78996844 232.75 73.1875 C233.76191406 73.91839844 234.77382813 74.64929688 235.81640625 75.40234375 C247.78826984 84.21784384 259.28854052 93.62608966 270.15234375 103.7734375 C272.3333272 105.80027625 274.54740222 107.75644694 276.8125 109.6875 C284.03152372 115.95902686 290.76907753 122.84924712 296.96484375 130.12890625 C299.03979918 132.52168855 301.20968088 134.81370432 303.375 137.125 C310.013788 144.41661889 315.8768203 152.27511675 321.75 160.1875 C322.56887695 161.28505615 322.56887695 161.28505615 323.40429688 162.40478516 C352.1671633 201.07733119 374.78949682 245.33449333 386.75 292.1875 C387.02295898 293.24791504 387.29591797 294.30833008 387.57714844 295.40087891 C392.42357254 314.40124062 396.21729365 332.97345643 397.9375 352.5 C398.06378784 353.93146362 398.06378784 353.93146362 398.19262695 355.3918457 C398.7994921 363.05754532 398.75 370.43113794 398.75 378.1875 C373.67 378.1875 348.59 378.1875 322.75 378.1875 C319.75 354.1875 319.75 354.1875 318.5625 344.625 C312.11437708 299.50458886 293.17552194 254.15001428 266.75 217.1875 C266.22148438 216.4440332 265.69296875 215.70056641 265.1484375 214.93457031 C256.04823156 202.19324316 246.62964169 189.63186701 235.3125 178.75 C233.57934402 177.01684402 232.01793953 175.18561352 230.4375 173.3125 C226.26066977 168.48881554 221.55930042 164.36748425 216.75 160.1875 C215.72097959 159.27255652 214.69234918 158.35717427 213.6640625 157.44140625 C149.36782851 100.68526272 64.80052739 74.78045095 -20.1171875 79.46484375 C-25.52121518 79.84802663 -30.88050014 80.47422128 -36.25 81.1875 C-38.04123291 81.42146484 -38.04123291 81.42146484 -39.86865234 81.66015625 C-96.8320823 89.31481649 -152.86962093 111.0102191 -197.25 148.1875 C-198.52810547 149.2084375 -198.52810547 149.2084375 -199.83203125 150.25 C-216.0572939 163.24877981 -231.41088549 177.82261829 -244.25 194.1875 C-245.17843252 195.3172105 -246.10958146 196.44469226 -247.04296875 197.5703125 C-262.30153989 216.08377924 -274.96465746 236.53594915 -285.25 258.1875 C-285.60562012 258.92532715 -285.96124023 259.6631543 -286.32763672 260.42333984 C-297.44034256 283.60547455 -305.58610905 308.18339795 -310.375 333.4375 C-310.56876724 334.44449448 -310.56876724 334.44449448 -310.76644897 335.47183228 C-312.5811954 344.92550278 -314.08710899 354.35403466 -314.92578125 363.94921875 C-315.25 367.1875 -315.25 367.1875 -316.25 371.1875 C-308 371.1875 -299.75 371.1875 -291.25 371.1875 C-291.25 367.8875 -291.25 364.5875 -291.25 361.1875 C-290.78366606 356.60793703 -289.98293196 352.09579581 -289.1875 347.5625 C-288.85468018 345.65911865 -288.85468018 345.65911865 -288.51513672 343.71728516 C-278.74319531 290.302237 -252.13740489 239.06867289 -214.25 200.1875 C-213.11401367 199.0128418 -213.11401367 199.0128418 -211.95507812 197.81445312 C-201.59592613 187.13971387 -191.2835031 176.94873471 -179.25 168.1875 C-178.26257813 167.42824219 -177.27515625 166.66898438 -176.2578125 165.88671875 C-138.30222506 136.740452 -93.46744853 117.71042208 -46.25 110.1875 C-45.34024414 110.03651855 -44.43048828 109.88553711 -43.49316406 109.72998047 C-28.42175292 107.31865873 -13.4795067 106.89919406 1.75 106.875 C3.11115936 106.86962219 3.11115936 106.86962219 4.49981689 106.86413574 C24.94824834 106.82065108 44.66139086 109.48301458 64.75 113.1875 C65.49540039 113.32349609 66.24080078 113.45949219 67.00878906 113.59960938 C77.116543 115.51517217 86.78128784 118.74505869 96.5 122.0625 C97.70809326 122.47322754 98.91618652 122.88395508 100.16088867 123.30712891 C108.27156747 126.13869061 115.99911791 129.4937305 123.75 133.1875 C125.15267703 133.81887161 126.55729333 134.44597515 127.96484375 135.06640625 C146.23502966 143.25707039 163.11982595 153.70153538 178.75 166.1875 C179.7296875 166.95578125 180.709375 167.7240625 181.71875 168.515625 C194.71657462 178.89894466 208.2259804 190.4803816 217.75 204.1875 C214.7240582 202.83054289 212.15053185 201.08780537 209.49047852 199.11767578 C171.90230134 171.2806582 127.92124347 152.13582213 81.875 143.9375 C80.96032959 143.77411133 80.04565918 143.61072266 79.10327148 143.44238281 C65.47994451 141.14880286 51.88225728 141.00108716 38.10473633 141.00219727 C35.08595537 141.00001694 32.06754452 140.98181752 29.04882812 140.96289062 C17.13612604 140.9279401 5.54736494 141.52717446 -6.25 143.1875 C-7.26312256 143.32824951 -8.27624512 143.46899902 -9.32006836 143.61401367 C-71.84052758 152.97398317 -134.9085914 187.19471752 -173.25 238.1875 C-177.33969681 243.79189933 -181.30762884 249.47894656 -185.25 255.1875 C-185.84941406 256.04472656 -186.44882812 256.90195312 -187.06640625 257.78515625 C-192.98931958 266.41937596 -198.19209821 275.5387113 -202.25 285.1875 C-203.00775935 286.65266924 -203.77772977 288.11161895 -204.5625 289.5625 C-217.1671755 314.6965992 -222.60020017 343.46651715 -225.25 371.1875 C-215.35 371.1875 -205.45 371.1875 -195.25 371.1875 C-197.12232192 374.93214385 -199.24062374 378.34473903 -201.5625 381.8125 C-201.99836426 382.46492676 -202.43422852 383.11735352 -202.88330078 383.78955078 C-207.41856598 390.52334735 -212.1853276 397.08415477 -216.9609375 403.6484375 C-220.09903052 407.9658491 -223.18184091 412.32021963 -226.25 416.6875 C-230.90170503 423.30363342 -235.62024431 429.86854118 -240.3659668 436.41748047 C-246.06415456 444.29137126 -251.66283908 452.23460428 -257.25 460.1875 C-260.66018675 459.05077108 -261.02291208 458.45617984 -262.9296875 455.56640625 C-263.43951172 454.80513428 -263.94933594 454.0438623 -264.47460938 453.25952148 C-265.29155273 452.01730835 -265.29155273 452.01730835 -266.125 450.75 C-267.29751437 449.00128517 -268.47204448 447.25392045 -269.6484375 445.5078125 C-270.2475293 444.61739258 -270.84662109 443.72697266 -271.46386719 442.80957031 C-274.15325606 438.86150627 -276.94119972 434.98865038 -279.75 431.125 C-280.28761963 430.38411133 -280.82523926 429.64322266 -281.37915039 428.87988281 C-283.00089065 426.64771631 -284.6251008 424.41736773 -286.25 422.1875 C-293.60257247 412.09109049 -300.86140845 401.93674495 -308 391.6875 C-308.70423096 390.67727783 -309.40846191 389.66705566 -310.1340332 388.6262207 C-310.785896 387.68738037 -311.43775879 386.74854004 -312.109375 385.78125 C-312.69170898 384.94271484 -313.27404297 384.10417969 -313.87402344 383.24023438 C-315.25 381.1875 -315.25 381.1875 -316.25 379.1875 C-341.66 378.8575 -367.07 378.5275 -393.25 378.1875 C-393.25 351.51121641 -393.25 351.51121641 -391.625 341.5 C-391.44678711 340.34121338 -391.26857422 339.18242676 -391.08496094 337.98852539 C-381.81795965 279.84240435 -360.87770716 224.6321398 -327.25 176.1875 C-326.23938579 174.7097705 -325.2289702 173.23190514 -324.21875 171.75390625 C-318.47792122 163.42241076 -312.43864258 155.56354196 -305.75683594 147.96533203 C-304.66681313 146.67927467 -303.61158455 145.36345528 -302.57910156 144.03076172 C-295.41221683 134.87700036 -287.16984063 126.80559875 -278.93994141 118.61669922 C-276.38081115 116.06828682 -273.83254518 113.50936179 -271.28515625 110.94921875 C-263.25392125 102.91078353 -255.28600919 95.09953766 -246.25 88.1875 C-244.82379691 87.03989957 -243.39924391 85.89024462 -241.9765625 84.73828125 C-220.16672548 67.41824064 -196.43055644 52.09977416 -171.24707031 40.14550781 C-169.14946328 39.13927187 -167.07096257 38.09922747 -164.9921875 37.0546875 C-127.39696477 18.40231832 -86.21721832 7.81471077 -44.75 2.5 C-43.81994141 2.38052002 -42.88988281 2.26104004 -41.93164062 2.13793945 C-27.96424895 0.44116184 -14.05162545 -0.01911762 0 0 Z " fill="#C4C5C7" transform="translate(509.25,82.8125)"/>
<path d="M0 0 C25.74 0 51.48 0 78 0 C78.99 17.82 78.99 17.82 80 36 C81.76444193 47.10796398 83.60721375 58.03380427 86 69 C86.22139648 70.04365723 86.44279297 71.08731445 86.67089844 72.16259766 C100.74258835 136.98126791 141.65484854 201.36072629 194 242 C195.12625848 242.92397097 196.24978572 243.85127752 197.37109375 244.78125 C223.97416731 266.72735387 256.05189009 285.37099748 288.80810547 296.26806641 C290.41782783 296.80559677 292.02302246 297.35673556 293.62548828 297.91552734 C321.80227856 307.72841122 352.07352261 314.33781894 382 315 C383.80742676 315.04084717 383.80742676 315.04084717 385.65136719 315.08251953 C404.3469071 315.45947558 422.48300436 314.89060691 441 312 C442.01771484 311.85014648 443.03542969 311.70029297 444.08398438 311.54589844 C476.85474129 306.7133917 508.34790855 296.77402451 538 282 C538.91072266 281.55011719 539.82144531 281.10023438 540.75976562 280.63671875 C559.73768332 271.19537475 577.34126244 260.09974008 594 247 C594.99515625 246.21882812 595.9903125 245.43765625 597.015625 244.6328125 C602.99951384 239.82860461 608.65935959 234.72032425 614.27734375 229.5 C616.41480872 227.53733489 618.57367288 225.65565074 620.8125 223.8125 C623.88770099 221.21040685 626.46255474 218.31388317 629.06640625 215.24609375 C631.23332626 212.72896445 633.4887785 210.30768853 635.75 207.875 C641.53037136 201.51920706 646.81387475 194.84547899 652 188 C652.50402344 187.34177246 653.00804687 186.68354492 653.52734375 186.00537109 C679.09998141 152.4372984 699.28092243 111.49756466 708 70 C708.36085693 68.31173096 708.36085693 68.31173096 708.72900391 66.58935547 C713.38576423 44.3180181 715.14634172 22.86178544 717 0 C742.41 0 767.82 0 794 0 C794 11.59244475 793.98343359 22.7217916 792.875 34.1875 C792.81164459 34.85377411 792.74828918 35.52004822 792.68301392 36.20651245 C790.38915881 59.86517475 785.56984185 83.16710701 779 106 C778.80615723 106.68771484 778.61231445 107.37542969 778.41259766 108.08398438 C764.40323965 157.3471135 739.96071739 203.12062295 708 243 C707.20464844 244.00675781 706.40929687 245.01351562 705.58984375 246.05078125 C700.47102164 252.43351006 695.00682352 258.46758567 689.43261719 264.44970703 C688.0054279 265.99412625 686.5982447 267.55463257 685.1953125 269.12109375 C659.67448067 297.47757356 628.737295 320.83400475 595.81689453 339.94091797 C594.03490518 340.9796535 592.2655525 342.03775489 590.49609375 343.09765625 C552.21559551 365.67664449 508.57731539 380.07873194 465 388 C462.66122296 388.44426834 460.32249075 388.88874637 457.98413086 389.33520508 C438.66303654 392.64466563 419.31603113 393.34846719 399.75 393.25 C398.62903931 393.24656586 397.50807861 393.24313171 396.35314941 393.23959351 C317.98947582 392.95831736 240.6680209 371.15685254 176 326 C174.68888776 325.10143747 173.37768279 324.20301025 172.06640625 323.3046875 C161.97171441 316.33696701 152.39591154 308.87942116 143 301 C142.41154297 300.51063965 141.82308594 300.0212793 141.21679688 299.51708984 C127.66958272 288.2341085 114.52593598 276.36273852 103 263 C101.54279869 261.41562476 100.0844266 259.83232568 98.625 258.25 C93.57326226 252.63598188 88.95448087 246.71453904 84.34667969 240.73632812 C83.1016976 239.13112279 81.83684535 237.54138163 80.5703125 235.953125 C68.21980665 220.32264874 57.60788963 203.42999189 48 186 C47.32590088 184.78739502 47.32590088 184.78739502 46.63818359 183.55029297 C28.95302735 151.5363333 15.01158648 115.20500325 8.4375 79.125 C8.24220703 78.08214844 8.04691406 77.03929687 7.84570312 75.96484375 C7.4404356 73.79725655 7.04042483 71.62868091 6.64526367 69.45922852 C6.19770106 67.05986618 5.72750796 64.66465778 5.23950195 62.27319336 C3.31742925 52.78022601 2.21485231 43.35461852 1.49194336 33.69897461 C1.31177982 31.30292206 1.11681917 28.90840167 0.91992188 26.51367188 C0.79600733 24.94277654 0.67293149 23.37181476 0.55078125 21.80078125 C0.49457108 21.108741 0.4383609 20.41670074 0.38044739 19.70368958 C-0.10372614 13.09023245 0 6.69521966 0 0 Z " fill="#143F65" transform="translate(115,484)"/>
<path d="M0 0 C1.36115936 -0.00537781 1.36115936 -0.00537781 2.74981689 -0.01086426 C23.19824834 -0.05434892 42.91139086 2.60801458 63 6.3125 C63.74540039 6.44849609 64.49080078 6.58449219 65.25878906 6.72460938 C75.366543 8.64017217 85.03128784 11.87005869 94.75 15.1875 C95.95809326 15.59822754 97.16618652 16.00895508 98.41088867 16.43212891 C106.52156747 19.26369061 114.24911791 22.6187305 122 26.3125 C123.40267703 26.94387161 124.80729333 27.57097515 126.21484375 28.19140625 C144.48502966 36.38207039 161.36982595 46.82653538 177 59.3125 C177.9796875 60.08078125 178.959375 60.8490625 179.96875 61.640625 C192.96657462 72.02394466 206.4759804 83.6053816 216 97.3125 C212.9740582 95.95554289 210.40053185 94.21280537 207.74047852 92.24267578 C170.15230134 64.4056582 126.17124347 45.26082213 80.125 37.0625 C79.21032959 36.89911133 78.29565918 36.73572266 77.35327148 36.56738281 C63.72994451 34.27380286 50.13225728 34.12608716 36.35473633 34.12719727 C33.33595537 34.12501694 30.31754452 34.10681752 27.29882812 34.08789062 C15.38612604 34.0529401 3.79736494 34.65217446 -8 36.3125 C-9.01312256 36.45324951 -10.02624512 36.59399902 -11.07006836 36.73901367 C-73.59052758 46.09898317 -136.6585914 80.31971752 -175 131.3125 C-179.08969681 136.91689933 -183.05762884 142.60394656 -187 148.3125 C-187.59941406 149.16972656 -188.19882812 150.02695312 -188.81640625 150.91015625 C-194.73931958 159.54437596 -199.94209821 168.6637113 -204 178.3125 C-204.75775935 179.77766924 -205.52772977 181.23661895 -206.3125 182.6875 C-218.9171755 207.8215992 -224.35020017 236.59151715 -227 264.3125 C-217.1 264.3125 -207.2 264.3125 -197 264.3125 C-198.87232192 268.05714385 -200.99062374 271.46973903 -203.3125 274.9375 C-203.74836426 275.58992676 -204.18422852 276.24235352 -204.63330078 276.91455078 C-209.16856598 283.64834735 -213.9353276 290.20915477 -218.7109375 296.7734375 C-221.84903052 301.0908491 -224.93184091 305.44521963 -228 309.8125 C-232.65170503 316.42863342 -237.37024431 322.99354118 -242.1159668 329.54248047 C-247.81415456 337.41637126 -253.41283908 345.35960428 -259 353.3125 C-262.41018675 352.17577108 -262.77291208 351.58117984 -264.6796875 348.69140625 C-265.18951172 347.93013428 -265.69933594 347.1688623 -266.22460938 346.38452148 C-266.76923828 345.55637939 -267.31386719 344.7282373 -267.875 343.875 C-269.04751437 342.12628517 -270.22204448 340.37892045 -271.3984375 338.6328125 C-271.9975293 337.74239258 -272.59662109 336.85197266 -273.21386719 335.93457031 C-275.90325606 331.98650627 -278.69119972 328.11365038 -281.5 324.25 C-282.03761963 323.50911133 -282.57523926 322.76822266 -283.12915039 322.00488281 C-284.75089065 319.77271631 -286.3751008 317.54236773 -288 315.3125 C-295.23651342 305.37546051 -302.39417637 295.38770182 -309.4375 285.3125 C-310.43100464 283.89771362 -310.43100464 283.89771362 -311.44458008 282.4543457 C-312.08032959 281.54128662 -312.7160791 280.62822754 -313.37109375 279.6875 C-313.92724365 278.89085937 -314.48339355 278.09421875 -315.05639648 277.2734375 C-317.83702521 273.03735345 -320.39295785 268.65757024 -323 264.3125 C-313.1 264.3125 -303.2 264.3125 -293 264.3125 C-293 261.0125 -293 257.7125 -293 254.3125 C-292.53366606 249.73293703 -291.73293196 245.22079581 -290.9375 240.6875 C-290.60468018 238.78411865 -290.60468018 238.78411865 -290.26513672 236.84228516 C-280.49319531 183.427237 -253.88740489 132.19367289 -216 93.3125 C-215.24267578 92.52939453 -214.48535156 91.74628906 -213.70507812 90.93945312 C-203.34592613 80.26471387 -193.0335031 70.07373471 -181 61.3125 C-180.01257813 60.55324219 -179.02515625 59.79398438 -178.0078125 59.01171875 C-140.05222506 29.865452 -95.21744853 10.83542208 -48 3.3125 C-47.09024414 3.16151855 -46.18048828 3.01053711 -45.24316406 2.85498047 C-30.17175292 0.44365873 -15.2295067 0.02419406 0 0 Z " fill="#2F6899" transform="translate(511,189.6875)"/>
<path d="M0 0 C3.05829682 2.87267765 5.34709994 5.81625721 7.6171875 9.33984375 C8.2992627 10.39204102 8.98133789 11.44423828 9.68408203 12.52832031 C10.04101135 13.0837854 10.39794067 13.63925049 10.76568604 14.21154785 C12.27726844 16.56337878 13.80008798 18.90785473 15.32235718 21.2527771 C16.09845328 22.44842207 16.87402526 23.64440742 17.64907837 24.84072876 C30.37879662 44.48216875 43.28056927 64.14952344 57.20800781 82.96655273 C60 86.78777586 60 86.78777586 60 89 C50.43 89 40.86 89 31 89 C30.67 92.96 30.34 96.92 30 101 C29.45027663 104.48416221 28.86966761 107.91912243 28.1875 111.375 C28.00936768 112.28636719 27.83123535 113.19773437 27.64770508 114.13671875 C26.15867232 121.56022626 24.30566861 128.78524226 22 136 C21.76442383 136.75684082 21.52884766 137.51368164 21.28613281 138.29345703 C12.36395644 166.85673558 -0.20852647 193.84409692 -18 218 C-18.9648623 219.33462201 -19.92970566 220.6692577 -20.89453125 222.00390625 C-35.46087543 241.9620794 -52.29891859 260.98123838 -72 276 C-72.97582031 276.78117187 -73.95164062 277.56234375 -74.95703125 278.3671875 C-112.70480217 308.42974818 -159.18822328 327.78943936 -206.625 335.75 C-207.65173828 335.92305664 -207.65173828 335.92305664 -208.69921875 336.09960938 C-218.22086926 337.61316654 -227.77092605 338.17270982 -237.40234375 338.30859375 C-238.46587067 338.32394669 -239.52939758 338.33929962 -240.62515259 338.3551178 C-266.0129559 338.65296895 -290.2525677 337.91016077 -315 332 C-316.25973633 331.70029297 -317.51947266 331.40058594 -318.81738281 331.09179688 C-372.95531051 317.71002624 -419.33035605 288.656954 -458 249 C-457.505 248.01 -457.505 248.01 -457 247 C-456.195625 247.63164063 -455.39125 248.26328125 -454.5625 248.9140625 C-418.83238614 276.34745214 -375.36599471 293.96387955 -331 301 C-330.06800781 301.15098145 -329.13601563 301.30196289 -328.17578125 301.45751953 C-286.87793465 307.91553299 -243.5814962 304.34840416 -204 291 C-203.24267578 290.75056641 -202.48535156 290.50113281 -201.70507812 290.24414062 C-173.06467493 280.71367284 -146.50515713 265.87726406 -123 247 C-122.41734375 246.53303711 -121.8346875 246.06607422 -121.234375 245.58496094 C-107.22025079 234.23004836 -93.86202468 221.42896043 -83 207 C-82.57025879 206.43603516 -82.14051758 205.87207031 -81.69775391 205.29101562 C-75.69127227 197.38874479 -70.02959917 189.357795 -65.03320312 180.76806641 C-64.31931578 179.54642838 -63.59603014 178.33025135 -62.86523438 177.11865234 C-46.37952886 149.73916025 -37.53480306 120.3947904 -33 89 C-42.9 89 -52.8 89 -63 89 C-60.26096414 84.20668724 -57.92974433 80.45195751 -54.5625 76.25 C-50.36842098 70.92264242 -46.48651011 65.42731395 -42.6875 59.8125 C-37.89604637 52.73453651 -32.98533626 45.7640268 -27.95483398 38.85424805 C-23.81627472 33.15913723 -19.77099516 27.40358803 -15.75 21.625 C-10.6482194 14.29783241 -5.43979375 7.08036647 0 0 Z " fill="#E87627" transform="translate(762,437)"/>
<path d="M0 0 C0 1.32 0 2.64 0 4 C-2.70204292 6.70204292 -4.4129529 6.41433405 -8.1953125 6.7109375 C-10.09434326 6.87299683 -10.09434326 6.87299683 -12.03173828 7.03833008 C-12.70078186 7.09276276 -13.36982544 7.14719543 -14.05914307 7.20327759 C-33.09782517 8.78585011 -54.53248759 10.64283663 -68 26 C-73.52414779 33.92963008 -76.00268199 40.26730016 -75 50 C-74.17841599 52.21165742 -73.18059312 54.09357989 -71.98046875 56.12109375 C-71 58 -71 58 -70.4375 61.75 C-68.98805496 68.38349621 -62.65546105 73.35431248 -58 78 C-57.25492188 78.74765625 -56.50984375 79.4953125 -55.7421875 80.265625 C-54.4401415 81.56256494 -53.13430022 82.85570871 -51.82421875 84.14453125 C-49.98610162 86.01413647 -48.27014312 87.94850607 -46.5625 89.9375 C-43.99334729 92.92801716 -41.30682744 95.73116684 -38.5 98.5 C-35.7755846 101.1877846 -33.16739688 103.89816863 -30.6875 106.8125 C-27.18069295 110.90786208 -23.38425563 114.67577532 -19.52612305 118.43676758 C-16.78365317 121.13166166 -14.1941099 123.89582258 -11.6875 126.8125 C-7.68401714 131.44070217 -3.36150656 135.71167308 1 140 C5.94957037 144.86652389 10.73330186 149.77046069 15.2578125 155.03515625 C18.34398051 158.51574483 21.68039267 161.74398669 25 165 C29.62849099 169.53982258 34.05376846 174.14986838 38.28515625 179.0625 C41.0488532 182.18503688 44.02150164 185.08422424 47 188 C51.32090468 192.27099137 55.50108241 196.57162998 59.4296875 201.2109375 C61.82826092 203.94364055 64.44145935 206.45005228 67.03125 209 C69.55425459 211.56305228 71.87562817 214.27345824 74.21875 217 C76.0742521 219.08337078 78.01223101 221.04281207 80 223 C82.55869259 225.51955389 84.98170611 228.08118782 87.3125 230.8125 C90.22250413 234.20195561 93.32159176 237.36452146 96.5 240.5 C100.26216622 244.21142043 103.82809836 248.0185842 107.2578125 252.0390625 C109.89771838 255.01043638 112.74194023 257.76456888 115.59375 260.53125 C117.57756808 262.56659583 119.42717417 264.63521208 121.27734375 266.7890625 C124.35724432 270.3413303 127.61868125 273.62426076 131.00170898 276.88598633 C147.86696974 293.16383011 147.86696974 293.16383011 148.4375 304.9375 C148.33164082 312.94045373 145.11832913 319.48623059 139.84375 325.4296875 C131.77420387 332.97416043 125.56774418 334.68561491 114.58203125 334.39453125 C102.82599113 333.09970022 93.85633922 320.31742594 86.609375 311.828125 C84.97413566 309.97062012 83.26518207 308.23393991 81.5 306.5 C79.12775898 304.16974555 76.90886483 301.77895594 74.75 299.25 C71.81720396 295.84161542 68.69927485 292.65600486 65.5 289.5 C61.75968201 285.81006515 58.21760655 282.02496307 54.80859375 278.02734375 C51.82838341 274.686676 48.60169406 271.59441183 45.41796875 268.44921875 C42.69350082 265.6895396 40.16452624 262.80819343 37.64453125 259.86328125 C35.48592433 257.41754372 33.16948732 255.1568685 30.84204102 252.87329102 C29.06944224 251.07062032 27.41296304 249.21401019 25.765625 247.296875 C22.03628201 243.00773634 18.16235167 238.87187391 14.25 234.75 C9.63126107 229.86455112 5.029319 224.96852569 0.5 220 C-4.02302538 215.04588446 -8.59464247 210.13944427 -13.1875 205.25 C-13.84105469 204.55261719 -14.49460937 203.85523438 -15.16796875 203.13671875 C-19.1033831 198.955341 -23.10946736 194.8610226 -27.20117188 190.83227539 C-28.98828234 189.01193553 -30.65925893 187.12951105 -32.3125 185.1875 C-35.22250489 181.79804351 -38.32160708 178.63549239 -41.5 175.5 C-44.57405234 172.46716171 -47.5799926 169.42060574 -50.375 166.125 C-54.08481841 161.76999578 -58.1637167 157.80988462 -62.22851562 153.79101562 C-65.80452212 150.23987129 -69.19709175 146.60046833 -72.4609375 142.7578125 C-74.0694055 140.92072976 -75.75838868 139.21092213 -77.5 137.5 C-80.44410712 134.60128661 -83.15240014 131.56668623 -85.84765625 128.4375 C-89.22247103 124.6155682 -92.71604675 120.90439797 -96.20556641 117.18725586 C-96.73714355 116.61885986 -97.2687207 116.05046387 -97.81640625 115.46484375 C-98.34459961 114.901604 -98.87279297 114.33836426 -99.41699219 113.75805664 C-101.06025471 111.93308233 -102.57802463 110.03333397 -104.11328125 108.1171875 C-105.95357924 105.95239763 -106.68513755 105.10852055 -109.4140625 104.16796875 C-110.14367187 104.17441406 -110.87328125 104.18085938 -111.625 104.1875 C-115.70500744 104.15171046 -115.70500744 104.15171046 -117.9140625 103.015625 C-122.27023726 100.89464103 -127.29709769 101.41440112 -132 102 C-138.14914687 104.34492835 -143.06200379 109.12400758 -146 115 C-146.18704404 117.69013339 -146.08581391 120.29686177 -146 123 C-145.67 123.33 -145.34 123.66 -145 124 C-144.38117601 127.17147295 -144.47032511 129.20225794 -146.28125 131.9296875 C-149.8326619 136.07838231 -153.7762478 139.68989902 -157.95703125 143.19140625 C-160.84644435 145.74933792 -163.39066769 148.60704264 -165.9453125 151.49609375 C-168.83971333 153.61461907 -170.46458852 153.44403675 -174 153 C-176.14581226 151.39352166 -177.77586703 149.95217481 -179.58984375 148.03125 C-180.09745743 147.51751831 -180.60507111 147.00378662 -181.12806702 146.4744873 C-182.74579521 144.82989512 -184.34128298 143.16544995 -185.9375 141.5 C-187.00581682 140.41013865 -188.07546707 139.32158267 -189.14648438 138.234375 C-194.0941695 133.18782805 -198.9248345 128.06086396 -203.52661133 122.69433594 C-204.92125148 121.09055754 -206.35841385 119.55074189 -207.8359375 118.0234375 C-208.67382812 117.14945312 -209.51171875 116.27546875 -210.375 115.375 C-211.22835938 114.49585938 -212.08171875 113.61671875 -212.9609375 112.7109375 C-215.38271658 109.49117757 -216.32401339 108.05016738 -216 104 C-213.89541738 101.14372385 -211.30594341 98.93108687 -208.625 96.625 C-207.88854248 95.96886719 -207.15208496 95.31273437 -206.39331055 94.63671875 C-204.9321363 93.33689623 -203.46472151 92.04405018 -201.99072266 90.75878906 C-200.3172345 89.28027439 -198.6993833 87.77382838 -197.10546875 86.2109375 C-196.34878906 85.48132813 -195.59210938 84.75171875 -194.8125 84 C-194.17957031 83.38125 -193.54664063 82.7625 -192.89453125 82.125 C-191 81 -191 81 -188.51171875 81.1875 C-186 82 -186 82 -183.953125 83.03125 C-180.37996624 84.80353675 -176.87132887 84.72587416 -173 84 C-167.00057317 80.89315396 -161.91683855 75.7008269 -158.81640625 69.71484375 C-157.80557869 66.35347939 -158.24339162 64.07240471 -158.8125 60.625 C-159.37552521 54.67301921 -159.37552521 54.67301921 -157.796875 51.84375 C-155.96856358 50.03190985 -154.07860408 48.51671299 -152 47 C-150.82284677 46.01236577 -149.65655983 45.01167212 -148.5 44 C-147.84 43.4328125 -147.18 42.865625 -146.5 42.28125 C-143.05111369 39.13414124 -139.78476202 35.81695767 -136.5 32.5 C-132.06443771 28.02104752 -127.63299563 23.64451771 -122.796875 19.59375 C-120.68490134 17.72052119 -118.80651801 15.68340606 -116.875 13.625 C-86.91251252 -16.43992333 -36.88604769 -13.82518531 0 0 Z " fill="#EA7D28" transform="translate(517,304)"/>
<path d="M0 0 C3.46396707 0.5741825 4.98322124 1.66144394 7.3203125 4.24609375 C7.93326172 4.91382813 8.54621094 5.5815625 9.17773438 6.26953125 C9.82033203 6.98496094 10.46292969 7.70039063 11.125 8.4375 C12.46999804 9.90619098 13.81635325 11.37364025 15.1640625 12.83984375 C15.81922852 13.5551123 16.47439453 14.27038086 17.14941406 15.00732422 C19.53537489 17.57648151 21.99968147 20.04199455 24.5 22.5 C27.88640118 25.84184327 31.03972816 29.29109675 34.12890625 32.90625 C37.89452622 37.11997088 41.96907508 41.0420697 46 45 C42.17616076 53.60864332 34.44724974 60.65800806 28.17578125 67.546875 C25.37367794 70.70615844 22.76751651 73.99822165 20.15234375 77.3125 C17.71470159 80.35623467 15.21099244 83.34004265 12.6875 86.3125 C12.22593506 86.85648438 11.76437012 87.40046875 11.28881836 87.9609375 C8.88476659 90.79050353 6.47461747 93.61480934 4.0625 96.4375 C2.18332242 98.63762074 0.31835596 100.84853712 -1.53515625 103.0703125 C-3.00963665 104.82286448 -4.50964279 106.5550948 -6.05859375 108.2421875 C-8.4348129 110.97511391 -9.9167517 112.78031555 -10.16796875 116.4609375 C-9.93988039 119.03562981 -9.51556307 121.4680125 -9 124 C-7.91000669 130.16624788 -7.81651388 136.19591814 -7.8125 142.4375 C-7.80025391 143.43587891 -7.78800781 144.43425781 -7.77539062 145.46289062 C-7.74157266 162.60859672 -14.92830609 178.75146888 -26.625 191.1875 C-40.17803766 204.14321533 -59.53106896 212.28069357 -78.3125 212.0625 C-79.05306641 212.05798828 -79.79363281 212.05347656 -80.55664062 212.04882812 C-82.37112899 212.03712175 -84.18557534 212.01918898 -86 212 C-85.47177907 207.5141853 -83.82139229 205.02983055 -81.0625 201.5 C-80.65990967 200.97865479 -80.25731934 200.45730957 -79.8425293 199.92016602 C-78.56943522 198.27391944 -77.28514746 196.63684621 -76 195 C-73.15464516 191.3287284 -70.32255609 187.64782857 -67.50390625 183.95605469 C-66.40122201 182.52184914 -65.29071494 181.09364912 -64.17578125 179.66894531 C-62.2046045 177.1459571 -60.25750141 174.60570086 -58.3125 172.0625 C-57.67546143 171.2573999 -57.03842285 170.4522998 -56.38208008 169.62280273 C-55.79837646 168.85137939 -55.21467285 168.07995605 -54.61328125 167.28515625 C-54.08516846 166.60332275 -53.55705566 165.92148926 -53.01293945 165.21899414 C-51.17430375 161.19118988 -52.72573398 157.78613786 -54.12329102 153.78027344 C-54.57889404 152.65137695 -55.03449707 151.52248047 -55.50390625 150.359375 C-55.7466478 149.75111877 -55.98938934 149.14286255 -56.23948669 148.51617432 C-57.00818878 146.59179815 -57.78471007 144.67071907 -58.5625 142.75 C-59.34293508 140.8146556 -60.12159479 138.87865447 -60.89622498 136.940979 C-61.5954299 135.19306134 -62.30061791 133.44754058 -63.00610352 131.70214844 C-64 129 -64 129 -64 127 C-64.94617188 126.89042969 -65.89234375 126.78085937 -66.8671875 126.66796875 C-68.20325312 126.50888484 -69.53917975 126.34863128 -70.875 126.1875 C-71.93811401 126.05927856 -71.93811401 126.05927856 -73.02270508 125.9284668 C-79.37885613 125.13351475 -85.67798298 124.07623795 -91.97021484 122.87768555 C-95.97558544 122.15776599 -99.09692824 121.80250205 -103 123 C-104.68107326 124.50171203 -104.68107326 124.50171203 -105.98828125 126.515625 C-106.78903076 127.63590088 -106.78903076 127.63590088 -107.60595703 128.77880859 C-108.16911621 129.59430176 -108.73227539 130.40979492 -109.3125 131.25 C-110.54368239 132.97791111 -111.77683424 134.70442024 -113.01171875 136.4296875 C-113.6567334 137.33686523 -114.30174805 138.24404297 -114.96630859 139.17871094 C-118.42754132 143.98039225 -122.02681663 148.67556823 -125.625 153.375 C-126.29958252 154.25961914 -126.97416504 155.14423828 -127.66918945 156.05566406 C-130.73683197 160.07247355 -133.81680318 164.07351865 -137 168 C-137.99 167.67 -138.98 167.34 -140 167 C-146.59686956 151.48963444 -146.12670359 130.54211993 -140.18554688 114.84863281 C-136.60872991 106.47614723 -132.11476669 98.77849425 -126 92 C-125.49339844 91.401875 -124.98679687 90.80375 -124.46484375 90.1875 C-115.06321587 79.83877939 -99.88306911 72.45878766 -86 71 C-84.2181362 71.05250524 -82.43681741 71.12505902 -80.65625 71.2109375 C-68.32927417 71.94137557 -68.32927417 71.94137557 -57.55859375 66.87890625 C-54.47403241 63.76000102 -51.81192733 60.36037346 -49.27490234 56.78662109 C-47.7403498 54.63613172 -46.03352005 52.69677131 -44.25 50.75 C-43.73695313 50.15316406 -43.22390625 49.55632813 -42.6953125 48.94140625 C-40.54844949 46.48290184 -38.33462868 44.089711 -36.125 41.6875 C-32.81663086 38.06476095 -29.63987642 34.38307109 -26.5625 30.5625 C-22.43172265 25.44472276 -18.04892907 20.61808766 -13.58203125 15.796875 C-8.86369742 10.68594153 -4.28351342 5.48289717 0 0 Z " fill="#306595" transform="translate(457,482)"/>
<path d="M0 0 C-1.48090332 4.49291006 -3.98991396 7.81618001 -6.9375 11.4375 C-7.93503214 12.68478683 -8.93242405 13.93218583 -9.9296875 15.1796875 C-10.43983398 15.81358398 -10.94998047 16.44748047 -11.47558594 17.10058594 C-14.31988594 20.64457281 -17.13094214 24.21527854 -19.91455078 27.80712891 C-22.20383509 30.75498579 -24.53331098 33.63775681 -26.984375 36.453125 C-27.45931396 37.01765381 -27.93425293 37.58218262 -28.42358398 38.16381836 C-29.72959439 39.71408876 -31.06126965 41.24263407 -32.39453125 42.76953125 C-34.72835762 47.46557603 -33.59883732 50.17747611 -32 55 C-31.69022217 56.02552979 -31.38044434 57.05105957 -31.0612793 58.10766602 C-27.2490519 71.63187731 -27.2490519 71.63187731 -19.06103516 82.45410156 C-14.86063632 84.17203555 -10.65888438 84.20027529 -6.17529297 84.02978516 C-2.65862382 83.98163323 0.72671643 84.62084232 4.1875 85.1875 C6.45368363 85.49482148 8.72477524 85.76894372 11 86 C12.04671875 86.10828125 13.0934375 86.2165625 14.171875 86.328125 C17.09915845 86.25665617 17.09915845 86.25665617 19.09765625 84.19140625 C19.74605469 83.32386719 20.39445313 82.45632813 21.0625 81.5625 C21.82691406 80.5621875 22.59132813 79.561875 23.37890625 78.53125 C23.79414551 77.97050781 24.20938477 77.40976562 24.63720703 76.83203125 C26.11986924 74.83885726 27.6330284 72.87161548 29.15234375 70.90625 C39.61049955 57.4568305 39.61049955 57.4568305 49.6171875 43.67578125 C50.07351563 43.12277344 50.52984375 42.56976563 51 42 C51.66 42 52.32 42 53 42 C60.62986305 61.57225738 58.68710445 83.45465329 50.49609375 102.49609375 C42.71033493 118.42406782 30.32163495 128.23195603 14.1171875 134.95703125 C7.91548386 137.03203736 2.46981088 138.13576205 -4.109375 137.921875 C-16.89367485 137.04986571 -16.89367485 137.04986571 -28.26953125 141.7890625 C-31.14458514 144.65438419 -33.52470696 147.82513727 -35.78271484 151.19140625 C-37.48629599 153.72251919 -39.42222798 156.03310157 -41.375 158.375 C-42.07367187 159.24898437 -42.77234375 160.12296875 -43.4921875 161.0234375 C-46.68975351 164.8186794 -50.08360656 168.40218284 -53.5 172 C-58.57394845 177.34472618 -63.39784709 182.75086327 -67.9921875 188.515625 C-71.18695211 192.46868004 -74.58783605 196.23453297 -78 200 C-82.554787 196.19985226 -86.95279259 192.34334454 -91 188 C-91 187.34 -91 186.68 -91 186 C-91.99 185.67 -92.98 185.34 -94 185 C-95.40234375 183.57421875 -95.40234375 183.57421875 -96.9375 181.6875 C-100.11842243 177.92577221 -103.49381284 174.45295613 -107 171 C-111.04170453 167.00957502 -114.91138194 162.9511899 -118.59765625 158.625 C-120.30288091 156.64902936 -122.11763176 154.80707351 -124 153 C-122.36821192 149.16804821 -119.82405411 146.23871326 -117.125 143.125 C-116.6403125 142.55910156 -116.155625 141.99320313 -115.65625 141.41015625 C-114.10779215 139.6036221 -112.5539515 137.80180919 -111 136 C-109.49821416 134.25001714 -107.99786262 132.49881188 -106.49755859 130.74755859 C-105.49321268 129.57554881 -104.48832331 128.40400453 -103.48291016 127.23291016 C-101.05310084 124.40191981 -98.62860235 121.56675732 -96.21875 118.71875 C-95.76790039 118.18604492 -95.31705078 117.65333984 -94.85253906 117.10449219 C-93.95537078 116.04019798 -93.06144864 114.97315835 -92.17089844 113.90332031 C-89.72932797 110.98231419 -87.2267788 108.15590472 -84.609375 105.390625 C-84.04927734 104.78283203 -83.48917969 104.17503906 -82.91210938 103.54882812 C-81.83463051 102.38271998 -80.73778281 101.23410221 -79.61914062 100.10742188 C-77.41158615 97.68406947 -76.06494868 96.07541584 -75.86303711 92.73217773 C-76.0976745 90.4318807 -76.47671808 88.25102842 -77 86 C-77.17660156 85.19691406 -77.35320313 84.39382813 -77.53515625 83.56640625 C-77.70917969 82.90511719 -77.88320313 82.24382812 -78.0625 81.5625 C-81.58999263 64.19431112 -78.7844948 46.2011372 -69.25 31.25 C-57.57855951 14.39125263 -40.85829317 4.48554164 -20.82421875 0.4921875 C-13.89183937 -0.40002885 -6.97335227 -0.22794251 0 0 Z " fill="#316A9B" transform="translate(639,268)"/>
<path d="M0 0 C25.41 0 50.82 0 77 0 C77 6.27 77 12.54 77 19 C76.34 19 75.68 19 75 19 C74.67 13.39 74.34 7.78 74 2 C49.91 1.67 25.82 1.34 1 1 C0.67 2.32 0.34 3.64 0 5 C0 3.35 0 1.7 0 0 Z " fill="#26496A" transform="translate(832,484)"/>
<path d="M0 0 C0 3.38326234 -0.51897957 4.13055293 -2.37890625 6.84375 C-3.1373584 7.96257568 -3.1373584 7.96257568 -3.91113281 9.10400391 C-4.45608398 9.89468262 -5.00103516 10.68536133 -5.5625 11.5 C-6.67374876 13.14284262 -7.78442874 14.78607012 -8.89453125 16.4296875 C-9.92953534 17.95322838 -10.96467532 19.47667696 -12 21 C-17.45175832 29.06983434 -21.87432938 37.43469479 -26.11523438 46.18212891 C-27.38878115 48.79880365 -28.69372583 51.3995468 -30 54 C-30.66 54 -31.32 54 -32 54 C-30.53052931 49.11438869 -28.51389753 44.79326005 -26.125 40.3125 C-25.54105469 39.21578979 -25.54105469 39.21578979 -24.9453125 38.09692383 C-17.69798239 24.71625752 -9.43676022 11.93893149 0 0 Z " fill="#4495C4" transform="translate(274,308)"/>
<path d="M0 0 C2.067623 1.37841534 4.13463811 2.75765232 6.19921875 4.140625 C8.21330702 5.47773242 10.23809645 6.7987719 12.26953125 8.109375 C13.35621094 8.81578125 14.44289063 9.5221875 15.5625 10.25 C16.59503906 10.91515625 17.62757813 11.5803125 18.69140625 12.265625 C19.45324219 12.83796875 20.21507812 13.4103125 21 14 C21 14.66 21 15.32 21 16 C20.34 16.66 19.68 17.32 19 18 C16 18 16 18 14.19067383 16.56298828 C13.53607178 15.90540527 12.88146973 15.24782227 12.20703125 14.5703125 C11.49482422 13.85746094 10.78261719 13.14460937 10.04882812 12.41015625 C9.31083984 11.65605469 8.57285156 10.90195312 7.8125 10.125 C7.06291016 9.37863281 6.31332031 8.63226562 5.54101562 7.86328125 C0 2.26680505 0 2.26680505 0 0 Z " fill="#DE5D33" transform="translate(304,684)"/>
<path d="M0 0 C2.92700833 1.30886976 4.87184315 2.66226088 7.015625 5.0390625 C7.54414062 5.61914062 8.07265625 6.19921875 8.6171875 6.796875 C9.42542969 7.70179688 9.42542969 7.70179688 10.25 8.625 C10.80429687 9.23601562 11.35859375 9.84703125 11.9296875 10.4765625 C13.2917841 11.97956565 14.64661601 13.4891468 16 15 C11.8612826 15 10.32120614 13.24740149 7.0625 10.75 C6.02222656 9.96109375 4.98195313 9.1721875 3.91015625 8.359375 C1.43448263 6.35225169 -0.8056503 4.30538908 -3 2 C-2.01 1.34 -1.02 0.68 0 0 Z " fill="#2C476B" transform="translate(711,271)"/>
<path d="M0 0 C0.33 0.66 0.66 1.32 1 2 C-3.80782447 8.03055514 -8.72660536 13.94535899 -13.875 19.6875 C-14.3388208 20.21633789 -14.8026416 20.74517578 -15.28051758 21.29003906 C-16.45787168 22.5863113 -17.72365478 23.80107244 -19 25 C-19.99 25 -20.98 25 -22 25 C-21.42668945 24.39696045 -21.42668945 24.39696045 -20.84179688 23.78173828 C-13.55636572 16.09959742 -6.40054272 8.44792129 0 0 Z " fill="#4588BA" transform="translate(434,508)"/>
<path d="M0 0 C0.66 0.33 1.32 0.66 2 1 C-2.29 5.29 -6.58 9.58 -11 14 C-11.66 13.67 -12.32 13.34 -13 13 C-8.96476648 8.18876004 -4.95532767 3.86757281 0 0 Z " fill="#2F5988" transform="translate(340,566)"/>
<path d="M0 0 C0.66 0 1.32 0 2 0 C2 6.27 2 12.54 2 19 C1.34 19 0.68 19 0 19 C-0.1938211 16.02111874 -0.38035102 13.04209754 -0.5625 10.0625 C-0.61857422 9.21236328 -0.67464844 8.36222656 -0.73242188 7.48632812 C-0.80493164 6.27299805 -0.80493164 6.27299805 -0.87890625 5.03515625 C-0.9260376 4.2862915 -0.97316895 3.53742676 -1.02172852 2.76586914 C-1 1 -1 1 0 0 Z " fill="#345674" transform="translate(907,484)"/>
<path d="M0 0 C0.66 0 1.32 0 2 0 C0.55218207 3.44428265 -1.27694609 5.36130962 -4.125 7.75 C-5.21167969 8.67039062 -5.21167969 8.67039062 -6.3203125 9.609375 C-6.87460937 10.06828125 -7.42890625 10.5271875 -8 11 C-8.66 10.67 -9.32 10.34 -10 10 C-9.44570313 9.52949219 -8.89140625 9.05898438 -8.3203125 8.57421875 C-7.59585937 7.95160156 -6.87140625 7.32898438 -6.125 6.6875 C-5.40570313 6.07261719 -4.68640625 5.45773437 -3.9453125 4.82421875 C-1.80820669 2.9587676 -1.80820669 2.9587676 0 0 Z " fill="#324D73" transform="translate(431,668)"/>
<path d="M0 0 C3.45195767 1.4258086 5.1014256 3.09746334 7.25 6.125 C8.03117188 7.21167969 8.03117188 7.21167969 8.828125 8.3203125 C9.40820312 9.15175781 9.40820312 9.15175781 10 10 C6.04877831 8.13605411 3.19718873 5.97919859 0 3 C0 2.01 0 1.02 0 0 Z " fill="#445D7C" transform="translate(717,277)"/>
<path d="M0 0 C0 3.48961209 -0.90379374 5.11480295 -2.5 8.1875 C-2.9640625 9.08855469 -3.428125 9.98960937 -3.90625 10.91796875 C-4.2671875 11.60503906 -4.628125 12.29210937 -5 13 C-5.68359375 11.296875 -5.68359375 11.296875 -6 9 C-4.78515625 6.640625 -4.78515625 6.640625 -3.0625 4.25 C-2.49660156 3.45078125 -1.93070313 2.6515625 -1.34765625 1.828125 C-0.90292969 1.22484375 -0.45820313 0.6215625 0 0 Z " fill="#3A8EC0" transform="translate(255,337)"/>
<path d="M0 0 C0.66 0.33 1.32 0.66 2 1 C2 1.66 2 2.32 2 3 C0.34614767 4.34919532 -1.321702 5.68133728 -3 7 C-3.99 8.485 -3.99 8.485 -5 10 C-5.66 9.67 -6.32 9.34 -7 9 C-4.69 6.03 -2.38 3.06 0 0 Z " fill="#E36B44" transform="translate(762,437)"/>
<path d="M0 0 C0.66 0 1.32 0 2 0 C1.38461538 6.52307692 1.38461538 6.52307692 -0.5625 8.9375 C-1.036875 9.288125 -1.51125 9.63875 -2 10 C-1.125 2.25 -1.125 2.25 0 0 Z " fill="#2E4F79" transform="translate(319,592)"/>
<path d="M0 0 C2.97 0 5.94 0 9 0 C8.34 1.32 7.68 2.64 7 4 C6.34 3.34 5.68 2.68 5 2 C1.91652174 1.83318891 1.91652174 1.83318891 -1 2 C-0.67 1.34 -0.34 0.68 0 0 Z " fill="#354C6D" transform="translate(630,268)"/>
<path d="M0 0 C2.64 1.65 5.28 3.3 8 5 C7.01 5.66 6.02 6.32 5 7 C3.29115995 5.37660195 1.62553283 3.70680947 0 2 C0 1.34 0 0.68 0 0 Z " fill="#E28B6F" transform="translate(304,684)"/>
</svg>
