<?xml version="1.0" encoding="UTF-8"?>
<svg id="Capa_2" data-name="Capa 2" xmlns="http://www.w3.org/2000/svg" viewBox="0 0 481.82 226.48">
  <defs>
    <style>
      .cls-1 {
        fill: #039357;
      }

      .cls-1, .cls-2 {
        stroke-width: 0px;
      }

      .cls-2 {
        fill: #010101;
      }
    </style>
  </defs>
  <g id="Capa_1-2" data-name="Capa 1">
    <g>
      <polygon class="cls-1" points="248.24 167.68 316.54 44.36 375.88 44.36 395.52 92.58 425.51 24.3 481.82 24.3 424.42 167.68 365.07 167.68 343.59 121.32 317.79 167.68 248.24 167.68"/>
      <polygon class="cls-1" points="184.49 43.33 208.53 1.71 340.33 1.71 316.54 44.36 261.93 44.36 195.91 159.24 144.64 159.24 210.28 43.86 184.49 43.33"/>
      <path class="cls-1" d="M182.08,45.27h-53.15l-38.17,67.45c-1.24,2.19-3.56,3.54-6.07,3.54h-12.57c-5.1,0-8.27-5.54-5.7-9.94L128.69,0h-52.2L2.67,128.28c-7.61,13.23,1.94,29.75,17.2,29.75h82.51c7.51,0,14.47-3.94,18.33-10.39l61.36-102.37Z"/>
    </g>
    <g>
      <path class="cls-2" d="M81,209.03c0-1.54.23-3.17.69-4.88.61-2.29,1.53-4.28,2.77-5.97,1.24-1.69,2.8-3.02,4.69-4s4.04-1.47,6.45-1.47c3.23,0,5.84,1,7.83,3.01,1.99,2.01,2.98,4.67,2.98,7.98,0,2.75-.65,5.42-1.94,8-1.29,2.58-3.05,4.56-5.27,5.95-2.22,1.39-4.73,2.08-7.53,2.08-2.43,0-4.48-.55-6.13-1.66-1.65-1.1-2.82-2.47-3.51-4.1-.69-1.63-1.03-3.28-1.03-4.94ZM86.31,208.92c0,1.79.55,3.29,1.64,4.5,1.09,1.21,2.53,1.82,4.31,1.82,1.45,0,2.84-.48,4.18-1.43,1.34-.96,2.44-2.4,3.31-4.35s1.31-3.83,1.31-5.67c0-2.05-.55-3.67-1.66-4.84-1.1-1.17-2.51-1.75-4.22-1.75-2.62,0-4.76,1.22-6.4,3.67-1.64,2.45-2.47,5.13-2.47,8.05Z"/>
      <path class="cls-2" d="M111.44,200.36h4.84l-.41,1.94c1.03-.86,2-1.47,2.9-1.83.9-.37,1.87-.55,2.9-.55,1.98,0,3.58.68,4.78,2.05s1.81,3.4,1.81,6.11c0,3.41-1.04,6.29-3.12,8.64-1.78,2.01-3.89,3.01-6.32,3.01s-4.4-1.02-5.68-3.05l-2.05,9.81h-5.11l5.45-26.13ZM114.52,211.2c0,1.47.36,2.62,1.08,3.43.72.81,1.56,1.22,2.54,1.22.84,0,1.66-.31,2.44-.92.78-.61,1.43-1.63,1.95-3.04.52-1.42.77-2.73.77-3.94,0-1.41-.34-2.5-1.02-3.25s-1.54-1.13-2.58-1.13c-.97,0-1.86.35-2.66,1.04-.8.7-1.42,1.72-1.86,3.06-.44,1.35-.66,2.53-.66,3.54Z"/>
      <path class="cls-2" d="M142.75,212.14l4.97.8c-.82,2.21-2.03,3.89-3.63,5.04-1.6,1.15-3.46,1.73-5.57,1.73-2.41,0-4.32-.72-5.73-2.16-1.41-1.44-2.12-3.41-2.12-5.93,0-2.05.43-4,1.28-5.82.85-1.83,2.14-3.27,3.86-4.32,1.72-1.05,3.61-1.58,5.66-1.58,2.23,0,4.01.58,5.34,1.75,1.33,1.16,2.08,2.7,2.24,4.59l-4.86.52c-.12-1.06-.44-1.83-.97-2.33-.53-.5-1.22-.75-2.07-.75-.99,0-1.91.37-2.76,1.1-.85.74-1.51,1.84-1.97,3.3-.46,1.47-.69,2.84-.69,4.12,0,1.12.27,1.98.82,2.58.55.61,1.23.91,2.05.91s1.61-.3,2.37-.89c.76-.59,1.35-1.48,1.78-2.67Z"/>
      <path class="cls-2" d="M154.16,200.36h5.11l-3.95,18.91h-5.11l3.95-18.91ZM155.66,193.16h5.11l-.96,4.63h-5.11l.96-4.63Z"/>
      <path class="cls-2" d="M161.09,211.41c0-3.5.99-6.3,2.96-8.38,1.98-2.08,4.57-3.13,7.79-3.13,2.79,0,4.97.77,6.54,2.31,1.57,1.54,2.35,3.61,2.35,6.21,0,3.06-.98,5.71-2.94,7.94-1.96,2.23-4.58,3.35-7.87,3.35-1.78,0-3.36-.36-4.74-1.07-1.38-.71-2.4-1.72-3.08-3.03-.68-1.31-1.02-2.71-1.02-4.2ZM175.66,207.76c0-1.21-.35-2.18-1.06-2.91-.71-.73-1.62-1.1-2.73-1.1s-2.08.34-2.94,1.02c-.85.68-1.52,1.67-1.99,2.97-.48,1.3-.71,2.5-.71,3.59,0,1.35.37,2.43,1.1,3.22.74.79,1.66,1.19,2.78,1.19,1.4,0,2.58-.6,3.53-1.8,1.35-1.7,2.03-3.76,2.03-6.2ZM172.99,192.63h5.45l-5.77,5.34h-3.4l3.72-5.34Z"/>
      <path class="cls-2" d="M186.65,200.36h4.84l-.5,2.46c1.21-1.04,2.34-1.79,3.39-2.24s2.16-.67,3.32-.67c1.56,0,2.78.45,3.68,1.34.9.89,1.34,2.07,1.34,3.54,0,.67-.2,1.92-.59,3.78l-2.23,10.7h-5.11l2.24-10.74c.33-1.6.5-2.56.5-2.87,0-.65-.19-1.17-.58-1.54-.39-.37-.92-.56-1.61-.56-.75,0-1.58.31-2.49.94-.91.63-1.63,1.46-2.16,2.49-.38.74-.81,2.24-1.28,4.51l-1.62,7.76h-5.11l3.95-18.91Z"/>
      <path class="cls-2" d="M227.86,212.14l4.97.8c-.82,2.21-2.03,3.89-3.63,5.04-1.6,1.15-3.46,1.73-5.57,1.73-2.41,0-4.32-.72-5.73-2.16-1.41-1.44-2.12-3.41-2.12-5.93,0-2.05.43-4,1.28-5.82.85-1.83,2.14-3.27,3.86-4.32,1.72-1.05,3.61-1.58,5.66-1.58,2.23,0,4.01.58,5.34,1.75,1.33,1.16,2.08,2.7,2.24,4.59l-4.86.52c-.12-1.06-.44-1.83-.97-2.33-.53-.5-1.22-.75-2.07-.75-.99,0-1.91.37-2.76,1.1-.85.74-1.51,1.84-1.97,3.3-.46,1.47-.69,2.84-.69,4.12,0,1.12.27,1.98.82,2.58.55.61,1.23.91,2.05.91s1.61-.3,2.37-.89c.76-.59,1.35-1.48,1.78-2.67Z"/>
      <path class="cls-2" d="M236.06,211.41c0-3.5.99-6.3,2.97-8.38,1.98-2.08,4.57-3.13,7.79-3.13,2.79,0,4.97.77,6.54,2.31,1.57,1.54,2.35,3.61,2.35,6.21,0,3.06-.98,5.71-2.94,7.94-1.96,2.23-4.58,3.35-7.87,3.35-1.78,0-3.36-.36-4.74-1.07-1.38-.71-2.4-1.72-3.08-3.03-.68-1.31-1.02-2.71-1.02-4.2ZM250.63,207.76c0-1.21-.35-2.18-1.06-2.91-.71-.73-1.62-1.1-2.73-1.1s-2.08.34-2.94,1.02c-.85.68-1.52,1.67-1.99,2.97-.48,1.3-.71,2.5-.71,3.59,0,1.35.37,2.43,1.1,3.22.74.79,1.66,1.19,2.78,1.19,1.4,0,2.58-.6,3.53-1.8,1.35-1.7,2.03-3.76,2.03-6.2Z"/>
      <path class="cls-2" d="M261.62,200.36h4.84l-.5,2.46c1.21-1.04,2.34-1.79,3.39-2.24,1.05-.45,2.16-.67,3.32-.67,1.55,0,2.78.45,3.68,1.34s1.34,2.07,1.34,3.54c0,.67-.2,1.92-.59,3.78l-2.23,10.7h-5.11l2.24-10.74c.33-1.6.5-2.56.5-2.87,0-.65-.19-1.17-.58-1.54s-.92-.56-1.61-.56c-.75,0-1.58.31-2.49.94-.91.63-1.63,1.46-2.15,2.49-.38.74-.81,2.24-1.28,4.51l-1.62,7.76h-5.11l3.95-18.91Z"/>
      <path class="cls-2" d="M289.97,219.27l5.47-26.11h18.27l-.93,4.36h-12.89l-1.32,6.27h12.64l-.91,4.36h-12.64l-2.32,11.11h-5.38Z"/>
      <path class="cls-2" d="M316.2,200.36h5.11l-2.33,11.2c-.29,1.34-.43,2.18-.43,2.51,0,.55.2,1.01.61,1.41.4.39.92.59,1.55.59.45,0,.9-.09,1.34-.26s.89-.43,1.35-.78c.46-.35.88-.75,1.25-1.2s.71-1.04,1.03-1.78c.23-.55.47-1.44.73-2.67l1.89-9.01h5.11l-3.95,18.91h-4.77l.53-2.56c-2.09,2.01-4.36,3.01-6.82,3.01-1.55,0-2.78-.45-3.67-1.34s-1.34-2.08-1.34-3.58c0-.65.2-1.95.61-3.9l2.21-10.54Z"/>
      <path class="cls-2" d="M335.85,204.15l.78-3.79h2.49l.62-3.03,5.86-3.53-1.37,6.55h3.12l-.78,3.79h-3.13l-1.66,7.93c-.3,1.44-.45,2.26-.45,2.46,0,.39.12.7.37.92s.7.33,1.35.33c.23,0,.79-.04,1.69-.12l-.8,3.79c-.88.18-1.78.27-2.71.27-1.8,0-3.12-.35-3.94-1.04s-1.23-1.66-1.23-2.89c0-.58.22-1.92.66-4.03l1.58-7.6h-2.48Z"/>
      <path class="cls-2" d="M350.63,200.36h5.11l-2.33,11.2c-.29,1.34-.43,2.18-.43,2.51,0,.55.2,1.01.61,1.41.4.39.92.59,1.55.59.45,0,.9-.09,1.34-.26s.89-.43,1.35-.78c.46-.35.88-.75,1.25-1.2s.71-1.04,1.03-1.78c.23-.55.47-1.44.73-2.67l1.89-9.01h5.11l-3.95,18.91h-4.77l.53-2.56c-2.09,2.01-4.36,3.01-6.82,3.01-1.55,0-2.78-.45-3.67-1.34s-1.34-2.08-1.34-3.58c0-.65.2-1.95.61-3.9l2.21-10.54Z"/>
      <path class="cls-2" d="M372.66,200.36h4.77l-.77,3.67c1.78-2.74,3.71-4.11,5.79-4.11.74,0,1.53.18,2.37.55l-1.96,4.19c-.46-.17-.96-.25-1.48-.25-.88,0-1.77.33-2.68,1s-1.62,1.55-2.13,2.66c-.51,1.11-1.01,2.87-1.51,5.28l-1.25,5.93h-5.11l3.95-18.91Z"/>
      <path class="cls-2" d="M383.93,211.41c0-3.5.99-6.3,2.97-8.38,1.98-2.08,4.57-3.13,7.79-3.13,2.79,0,4.97.77,6.54,2.31,1.57,1.54,2.35,3.61,2.35,6.21,0,3.06-.98,5.71-2.94,7.94-1.96,2.23-4.58,3.35-7.87,3.35-1.78,0-3.36-.36-4.74-1.07-1.38-.71-2.4-1.72-3.08-3.03-.68-1.31-1.02-2.71-1.02-4.2ZM398.5,207.76c0-1.21-.35-2.18-1.06-2.91-.71-.73-1.62-1.1-2.73-1.1s-2.08.34-2.94,1.02c-.85.68-1.52,1.67-1.99,2.97-.48,1.3-.71,2.5-.71,3.59,0,1.35.37,2.43,1.1,3.22.74.79,1.66,1.19,2.78,1.19,1.4,0,2.58-.6,3.53-1.8,1.35-1.7,2.03-3.76,2.03-6.2Z"/>
    </g>
  </g>
</svg>